# xmcd
#
# Track frame offsets:
#	150
#	10910
#	32218
#	48725
#	61891
#	79094
#	91960
#	105101
#	113370
#	125814
#	142420
#	157110
#	170471
#	186843
#	198525
#
# Disc length: 2784 seconds
#
# Revision: 0
# Processed by: cddbd v1.5.1PL0 Copyright (c) Steve Scherf et al.
# Submitted via: audiograbber 1.82.02
#
DISCID=ce0ade0f
DTITLE=Mighty Joe Moon - The Grand Casino
DYEAR=2004
DGENRE=Country
TTITLE0=Shining Star
TTITLE1=Summer Came
TTITLE2=Happy Camper
TTITLE3=Meditation
TTITLE4=Crawling
TTITLE5=Blood Orange
TTITLE6=Mr. Ant
TTITLE7=Stars
TTITLE8=A Naked Lightbulb
TTITLE9=St. Peter's Drive
TTITLE10=Rocky Ground
TTITLE11=Dream
TTITLE12=Road In The Clouds
TTITLE13=The Old Blues
TTITLE14=The Grand Casino
EXTD=www.mightyjoemoon.de
EXTT0=
EXTT1=
EXTT2=
EXTT3=
EXTT4=
EXTT5=
EXTT6=
EXTT7=
EXTT8=
EXTT9=
EXTT10=
EXTT11=
EXTT12=
EXTT13=
EXTT14=
PLAYORDER=
